<svg viewBox="0 0 100 100" xmlns="http://www.w3.org/2000/svg" id="Phone-App-Shop-4--Streamline-Ux">
  <desc>
    Phone App Shop 4 Streamline Illustration: https://streamlinehq.com
  </desc>
  <path d="M24.751 19.137v-3.9A5.236 5.236 0 0 1 29.987 10h27.15a5.235 5.235 0 0 1 5.235 5.236v3.9" fill="none" stroke="#020064" stroke-linecap="round" stroke-linejoin="round" stroke-width="1"></path>
  <path d="M45.2 78.7H29.986a5.237 5.237 0 0 1 -5.235 -5.235V35.81" fill="none" stroke="#020064" stroke-linecap="round" stroke-linejoin="round" stroke-width="1"></path>
  <path d="m62.372 35.81 0 20.594" fill="none" stroke="#020064" stroke-linecap="round" stroke-linejoin="round" stroke-width="1"></path>
  <path d="m59.1 56.404 0.001 -21.159" fill="none" stroke="#020064" stroke-linecap="round" stroke-linejoin="round" stroke-width="1"></path>
  <path d="m28.023 35.245 0 32.821 18.739 0" fill="none" stroke="#020064" stroke-linecap="round" stroke-linejoin="round" stroke-width="1"></path>
  <path d="m41.926 14.908 8.996 -0.001" fill="none" stroke="#020064" stroke-linecap="round" stroke-linejoin="round" stroke-width="1"></path>
  <path d="M37.022 14.553a0.351 0.351 0 0 1 0.248 0.1 0.354 0.354 0 0 1 0.1 0.253 0.352 0.352 0 0 1 -0.356 0.352 0.354 0.354 0 1 1 0 -0.707m0 -1a1.354 1.354 0 0 0 0 2.707 1.354 1.354 0 0 0 0 -2.707Z" fill="#020064" stroke-width="1"></path>
  <path d="M40.699 73.382a2.862 2.862 0 1 0 5.724 0 2.862 2.862 0 1 0 -5.724 0Z" fill="none" stroke="#020064" stroke-linecap="round" stroke-linejoin="round" stroke-width="1"></path>
  <path d="m65.912 28.754 -44.701 0 3.54 -9.617 37.621 0 3.54 9.617z" fill="none" stroke="#020064" stroke-linecap="round" stroke-linejoin="round" stroke-width="1"></path>
  <path d="M21.211 28.754v2.682a4.47 4.47 0 1 0 8.94 0v-2.682Z" fill="none" stroke="#020064" stroke-linecap="round" stroke-linejoin="round" stroke-width="1"></path>
  <path d="M30.151 28.754v2.682a4.47 4.47 0 1 0 8.94 0v-2.682Z" fill="none" stroke="#020064" stroke-linecap="round" stroke-linejoin="round" stroke-width="1"></path>
  <path d="M39.091 28.754v2.682a4.471 4.471 0 0 0 8.941 0v-2.682Z" fill="none" stroke="#020064" stroke-linecap="round" stroke-linejoin="round" stroke-width="1"></path>
  <path d="M48.032 28.754v2.682a4.47 4.47 0 1 0 8.94 0v-2.682Z" fill="none" stroke="#020064" stroke-linecap="round" stroke-linejoin="round" stroke-width="1"></path>
  <path d="M56.972 28.754v2.682a4.47 4.47 0 0 0 8.94 0v-2.682Z" fill="none" stroke="#020064" stroke-linecap="round" stroke-linejoin="round" stroke-width="1"></path>
  <path d="m53.525 76.619 -3.216 1.895a3.935 3.935 0 0 0 2 7.325H75.7a1.56 1.56 0 0 0 0 -3.12H52.307A0.814 0.814 0 0 1 51.9 81.2l5 -2.947" fill="none" stroke="#020064" stroke-linecap="round" stroke-linejoin="round" stroke-width="1"></path>
  <path d="M71.338 87.92a2.08 2.08 0 1 0 4.16 0 2.08 2.08 0 1 0 -4.16 0Z" fill="none" stroke="#020064" stroke-linecap="round" stroke-linejoin="round" stroke-width="1"></path>
  <path d="M51.779 87.92a2.08 2.08 0 1 0 4.16 0 2.08 2.08 0 1 0 -4.16 0Z" fill="none" stroke="#020064" stroke-linecap="round" stroke-linejoin="round" stroke-width="1"></path>
  <path d="M44.845 55.636v3.12h2.206a1.04 1.04 0 0 1 1.008 0.785l4.959 15.882a3.621 3.621 0 0 0 3.549 2.832h16.56a3.622 3.622 0 0 0 3.549 -2.832l2.024 -8.869a3.64 3.64 0 0 0 -3.138 -4.426L51.38 59.341l-0.794 -2.529a1.559 1.559 0 0 0 -1.512 -1.176Zm17.473 12.673v-4.592l4.426 0.557v4.035Zm4.426 3.121v3.7h-4.426v-3.7Zm8.912 -5.57 -0.556 2.449h-5.235v-3.683l5.342 0.6a0.519 0.519 0 0 1 0.449 0.632Zm-2.529 9.274h-3.262v-3.7h4.521l-0.753 3.3a0.516 0.516 0 0 1 -0.506 0.4Zm-16.816 -0.075L55.22 71.43h3.98v3.7h-2.633a0.51 0.51 0 0 1 -0.256 -0.071Zm-3.738 -12.441 6.625 0.747v4.944h-4.915Z" fill="none" stroke="#020064" stroke-linecap="round" stroke-linejoin="round" stroke-width="1"></path>
  <path d="M40.09 57.2a1.561 1.561 0 0 1 1.56 -1.56h3.2v3.12h-3.2a1.561 1.561 0 0 1 -1.56 -1.56Z" fill="none" stroke="#020064" stroke-linecap="round" stroke-linejoin="round" stroke-width="1"></path>
</svg>